<?xml version="1.0" encoding="utf-8"?>
<!-- Generator: Adobe Illustrator 21.0.0, SVG Export Plug-In . SVG Version: 6.00 Build 0)  -->
<svg version="1.1" id="Layer_1" xmlns="http://www.w3.org/2000/svg" xmlns:xlink="http://www.w3.org/1999/xlink" x="0px" y="0px"
	 viewBox="0 0 1920 1080" style="enable-background:new 0 0 1920 1080;" xml:space="preserve">
<style type="text/css">
	.st0{fill:#FFFFFF;}
</style>
<g id="house">
	<path d="M1367.4,579.7l-152.9-152.9V197.5h-101.9v127.4L959.7,172L552,579.7v25.5h101.9V860h254.8V707.1h101.9V860h254.8V605.2
		h101.9V579.7z"/>
</g>
<g id="family">
	<g>
		<g>
			<circle class="st0" cx="909.7" cy="570.1" r="17.7"/>
			<path class="st0" d="M1036.7,650.3l-3-14.4l-6.9-33.4c0,0-3.2-15.3-17-15.3c-16.6,0-25.2,0-27.8,0c-2.7,0-5.9-8.3-8.1-8.3
				c-2.2,0-22.4,0-30.6,0c-8.2,0-10.8,2.3-10.8,2.3l-1.3,1L908,601c0,0-0.9,0.8-1.8,2.4c-1,1.7-2,4.4-2,8.1c0,7.1,0,14.8,0,22
				c0,29.1,23.6,32.9,23.6,32.9s1.3,0,3.4,0c0,0.2,0.1,0.4,0,0.7l-16.7,64.5c-0.2,0.8,0.3,1.5,1.1,1.5h20.5c0.8,0,1.5,0.7,1.5,1.5
				v105.7c0,0.8,0,1.6,0,1.6c0,0,0,0.1,0,0.1c0,8.3,6.8,15.1,15.1,15.1c8.3,0,14.8-6.8,14.8-15.1c0-1.1,0-2.1,0-3.1V733.7
				c0-0.8,0.7-1.5,1.5-1.5l5.4,0.2c0.8,0,1.5,0.7,1.5,1.6v106.2c0,0.8,0,1.6,0,1.6c0,0.1,0,0.2,0,0.4c0,0.1,0,0.2,0,0.3
				c0,8.3,6.3,14.5,14.6,14.5c8.3,0,15.3-6.8,15.3-15.1c0-1.1-0.1-2.1-0.1-3.1V734.7c0-0.8,0.7-1.6,1.5-1.6l15.6-0.6
				c0.8,0,1.4-0.7,1.3-1.6l-11.6-64.6c1.5,0,2.9,0,4.1,0C1040.8,666.4,1036.7,650.3,1036.7,650.3z"/>
			<circle class="st0" cx="973.5" cy="542" r="28"/>
		</g>
	</g>
	<g>
		<g>
			<g>
				<circle class="st0" cx="799.4" cy="541.2" r="28.2"/>
			</g>
		</g>
		<g>
			<g>
				<path class="st0" d="M865.4,733.3H863V721c1-0.7,1.9-1.6,2.6-2.6c1.8-2.3,2.8-5.2,2.8-8.3l-0.5-99.8c-0.1-17.6-14.5-32-32.2-32
					h-13.9l-10.4,27.2l-6.4,16.8l4-18.7c0.3-1.3,0.1-2.7-0.6-3.9l-5.5-9.9l4.8-8.8c0.3-0.6,0.3-1.4,0-2c-0.4-0.6-1-1-1.7-1h-13.3
					c-0.7,0-1.3,0.4-1.7,1c-0.4,0.6-0.4,1.3,0,2l4.8,8.8l-5.5,10c-0.6,1.2-0.8,2.5-0.6,3.8l3.5,18.7l-6.1-16.8l-10.6-27.2h-13.8
					c-17.6,0-32.1,14.4-32.2,32l-0.5,99.8c0,7.5,6,13.6,13.5,13.7c0,0,0,0,0.1,0c7.5,0,13.6-6,13.6-13.5l0.5-99.8c0,0,0,0,0,0
					c0-1.4,1.2-2.6,2.6-2.6s2.6,1.2,2.6,2.6l0,228.4c0,9,7.3,16.3,16.3,16.3c9,0,16.3-7.3,16.3-16.3V708.5h7v130.3
					c0,9,7.3,16.3,16.3,16.3c9,0,16.3-7.3,16.3-16.3v-27.8c-6.5-3.4-10.9-10.3-10.9-18.1v-54.1c0-7.9,4.4-14.7,10.9-18.1
					c0-11.5-0.2-89.5-0.3-110.3c0-1.5,1.2-2.8,2.8-2.8c1.5,0,2.8,1.2,2.9,2.7v0l0.5,99.8c0,3.1,1.1,5.9,2.8,8.2
					c0.9,1.1,1.9,2.2,3.1,3v11.9h-2.3c-3.1,0-5.6,2.5-5.6,5.6V793c0,3.1,2.5,5.6,5.6,5.6h20.5c3.1,0,5.6-2.5,5.6-5.6v-54.1
					C871,735.8,868.5,733.3,865.4,733.3z"/>
			</g>
		</g>
	</g>
	<path class="st0" d="M1163.4,861.5c6.1,0,12.1-5.2,12.1-11.5c0-0.1,0-67,0-67c0-1,0.9-2,1.8-2.4c8.2-3.2,8.4-14.2,8.1-18.7
		c-0.1-1-0.9-1.4-1.8-0.9l-10.3,6.3c-0.9,0.5-2.4,1-3.4,1c-10.7,0-63.9,0-66.8,0c-2.1,0-2.5-2.8-2.5-4.8c0-1,0.1-2.7,0.1-3.7v-37.1
		c0-1-0.2-0.9-1.2-0.4c-10.8,5.1-48.6,25.8-59,31.6c-8.5,4.9-6.5,18.2,8.7,18.2h21.4c1,0,2.5,0.5,2.8,1.5c0,0-0.8,76.6-0.8,77
		c0,6.2,4.9,11.2,10.8,11.2c6,0,10.8-5,10.8-11.2c0-0.4-0.1-33.5-0.1-33.5c0-1,0.8-2.4,1.9-2.4h35c1,0,1.4,0.7,0.8,1.5
		c-3.4,5.5-12.4,21.4-16.5,27.7c-3.1,4.2-2.8,10.1,1,13.9c4.1,4.1,11,4.3,15,0c0.2-0.3,12.1-18.4,18.4-31.5c0.4-0.9,0.8-0.8,0.8,0.2
		c0,8.7,0.1,18.5,0.3,23.6c0,0,0,0.1,0,0.1C1151,856.4,1157.3,861.5,1163.4,861.5z"/>
</g>
</svg>
